<svg xmlns="http://www.w3.org/2000/svg" viewBox="0 0 120 120" role="img" aria-label="MM-Goldmünze">
  <title>MM-Münze — Vault Gold mit Affenkopf-Prägung</title>
  <g transform="translate(60 60)">
    <circle cx="-4" cy="4" r="52" fill="#1A1208" opacity="0.4"/>
    <circle r="52" fill="#F5B301" stroke="#1A1208" stroke-width="5"/>
    <circle r="41" fill="none" stroke="#FFDE6B" stroke-width="4"/>
    <path d="M -36 -23 A 42 42 0 0 1 -14 -39" fill="none" stroke="#FFDE6B" stroke-width="6" stroke-linecap="round"/>
    <g fill="#1A1208" opacity="0.85">
      <circle cx="-18" cy="-10" r="8.5"/>
      <circle cx="18" cy="-10" r="8.5"/>
      <circle cx="0" cy="-2" r="20"/>
    </g>
    <ellipse cx="0" cy="6" rx="12" ry="9" fill="#F5B301"/>
    <circle cx="-7.5" cy="-8.5" r="3.2" fill="#F5B301"/>
    <circle cx="7.5" cy="-8.5" r="3.2" fill="#F5B301"/>
    <circle cx="-3.5" cy="4" r="1.7" fill="#1A1208"/>
    <circle cx="3.5" cy="4" r="1.7" fill="#1A1208"/>
    <path d="M -5 10 A 6.5 5 0 0 0 5 10" fill="none" stroke="#1A1208" stroke-width="2" stroke-linecap="round"/>
    <!-- Prägerand -->
    <g stroke="#C98F00" stroke-width="3" stroke-linecap="round">
      <path d="M 0 -48 L 0 -44 M 34 -34 L 31 -31 M 48 0 L 44 0 M 34 34 L 31 31 M 0 48 L 0 44 M -34 34 L -31 31 M -48 0 L -44 0 M -34 -34 L -31 -31"/>
    </g>
  </g>
</svg>
